<svg width="80" height="36" viewBox="0 0 80 36" fill="none" xmlns="http://www.w3.org/2000/svg">
<g clip-path="url(#clip0_1_77)">
<path fill-rule="evenodd" clip-rule="evenodd" d="M15.7879 16.2658C15.7879 14.5243 17.4138 13.1126 19.4196 13.1126L59.3683 13.1126C61.3741 13.1126 63 14.5243 63 16.2658C63 18.0072 61.3741 19.4189 59.3683 19.4189L19.4196 19.4189C17.4138 19.4189 15.7879 18.0072 15.7879 16.2658ZM53.9207 9.95951L59.3683 9.95951C59.3683 4.73509 54.4906 0.500118 48.4732 0.500117L30.3147 0.500115C24.2973 0.500115 19.4196 4.73509 19.4196 9.95951L53.9207 9.95951ZM55.7366 22.572L59.3683 22.572L59.3683 28.8783C59.3683 32.3613 56.1165 35.1846 52.1049 35.1846L26.683 35.1846C22.6714 35.1846 19.4196 32.3613 19.4196 28.8783L19.4196 22.572L55.7366 22.572ZM26.683 27.3017C26.683 26.4312 25.8698 25.7252 24.8671 25.7252C23.8644 25.7252 23.0513 26.4312 23.0513 27.3017C23.0513 28.1723 23.8644 28.8783 24.8671 28.8783C25.8698 28.8783 26.683 28.1723 26.683 27.3017ZM33.9464 30.4549C33.9464 29.5843 33.1333 28.8783 32.1305 28.8783C31.1278 28.8783 30.3147 29.5843 30.3147 30.4549C30.3147 31.3254 31.1278 32.0314 32.1305 32.0314C33.1333 32.0314 33.9464 31.3254 33.9464 30.4549ZM41.2098 27.3017C41.2098 26.4312 40.3967 25.7252 39.3939 25.7252C38.3912 25.7252 37.5781 26.4312 37.5781 27.3017C37.5781 28.1723 38.3912 28.8783 39.3939 28.8783C40.3967 28.8783 41.2098 28.1723 41.2098 27.3017ZM48.4732 30.4549C48.4732 29.5843 47.6601 28.8783 46.6573 28.8783C45.6546 28.8783 44.8415 29.5843 44.8415 30.4549C44.8415 31.3255 45.6546 32.0314 46.6573 32.0314C47.6601 32.0314 48.4732 31.3255 48.4732 30.4549ZM55.7366 27.3017C55.7366 26.4312 54.9235 25.7252 53.9207 25.7252C52.918 25.7252 52.1049 26.4312 52.1049 27.3017C52.1049 28.1723 52.918 28.8783 53.9207 28.8783C54.9235 28.8783 55.7366 28.1723 55.7366 27.3017Z" fill="#FD0B7D"/>
</g>
<defs>
<clipPath id="clip0_1_77">
<rect width="80" height="35" fill="white" transform="translate(0 0.5)"/>
</clipPath>
</defs>
</svg>
