<svg width="74" height="36" viewBox="0 0 74 36" fill="none" xmlns="http://www.w3.org/2000/svg">
<g clip-path="url(#clip0_1_86)">
<path fill-rule="evenodd" clip-rule="evenodd" d="M28.9319 19.8133L33.8789 14.4592L21.6162 1.18758C18.8892 4.13893 18.8892 8.93488 21.6162 11.8862L28.9319 19.8133ZM40.7925 16.3795C43.4583 17.7322 47.2254 16.7768 50.0048 13.7687C53.3523 10.1457 53.9904 4.97137 51.4295 2.19974C48.8598 -0.571877 44.0701 0.118663 40.7313 3.74164C37.9519 6.74974 37.0779 10.8268 38.319 13.7119C34.4295 17.9119 21.2491 32.1768 21.2491 32.1768L23.7226 34.8538L35.7493 21.8376L47.776 34.8538L50.2495 32.1768L38.2228 19.1606L40.7925 16.3795Z" fill="#FD0B7D"/>
</g>
<defs>
<clipPath id="clip0_1_86">
<rect width="74" height="35" fill="white" transform="translate(0 0.5)"/>
</clipPath>
</defs>
</svg>
